<svg xmlns="http://www.w3.org/2000/svg" xmlns:xlink="http://www.w3.org/1999/xlink" width="32" height="32" viewBox="0 0 32 32"><defs><linearGradient id="a"><stop offset="0" stop-color="#000092"/><stop offset="1" stop-color="#ff00f3"/></linearGradient><linearGradient id="b" x1="1.001" x2="28" y1="16.469" y2="16.469" gradientUnits="userSpaceOnUse" xlink:href="#a"/></defs><path fill="url(#b)" fill-rule="evenodd" d="M 11.5 3.96875 C 9.5420935 3.96875 7.8861651 5.2353423 7.2695312 6.9863281 C 5.550033 7.0756115 4.0166785 8.1336811 3.3476562 9.7363281 C 3.0177709 10.526523 2.9357853 11.372837 3.0664062 12.183594 C 1.4724309 13.461436 0.70758881 15.519306 1.1035156 17.53125 C 1.3590058 18.829521 2.0676991 19.963283 3.0644531 20.761719 C 2.8334865 22.210809 3.3158043 23.690406 4.3828125 24.714844 C 5.1744411 25.47488 6.2053694 25.898163 7.2714844 25.953125 C 7.9703223 27.942747 9.9671764 29.210786 12.087891 28.931641 C 13.60256 28.732201 14.846154 27.779263 15.5 26.490234 C 16.153846 27.779263 17.39744 28.732201 18.912109 28.931641 C 21.032824 29.210786 23.029678 27.942747 23.728516 25.953125 C 24.79463 25.898163 25.825559 25.47488 26.617188 24.714844 C 27.684195 23.690406 28.166513 22.210809 27.935547 20.761719 C 28.932301 19.963283 29.640995 18.829521 29.896484 17.53125 C 30.292411 15.519306 29.52757 13.461436 27.933594 12.183594 C 28.064215 11.372837 27.982229 10.526523 27.652344 9.7363281 C 26.983321 8.1336811 25.449967 7.0756115 23.730469 6.9863281 C 23.113835 5.2353423 21.457906 3.96875 19.5 3.96875 C 17.749805 3.96875 16.243618 4.9848467 15.5 6.4492188 C 14.756382 4.9848467 13.250195 3.96875 11.5 3.96875 z M 11.5 4.96875 C 13.438919 4.96875 15 6.52985 15 8.46875 A 0.50004997 0.50004997 0 0 0 15 8.5019531 L 15 24.46875 C 15.000009 26.22905 13.702251 27.709653 11.957031 27.939453 C 10.395627 28.144961 8.9282115 27.286543 8.3085938 25.886719 C 8.4272495 25.865007 8.5463811 25.847942 8.6640625 25.816406 A 0.5002923 0.5002923 0 0 0 8.40625 24.849609 C 7.2222696 25.166909 5.960365 24.839541 5.0761719 23.994141 C 4.353445 23.300254 3.9785289 22.338249 4.0097656 21.357422 C 4.3481951 21.53002 4.7002591 21.682491 5.0761719 21.783203 A 0.5005448 0.5005448 0 0 0 5.3359375 20.816406 C 3.6766727 20.371806 2.4156663 19.023391 2.0839844 17.337891 C 1.786815 15.827901 2.2874504 14.290665 3.3769531 13.238281 C 3.5981486 13.754766 3.9059566 14.239932 4.3183594 14.652344 A 0.50004997 0.50004997 0 1 0 5.0253906 13.945312 C 4.020874 12.940812 3.7222578 11.432094 4.2695312 10.121094 C 4.7552647 8.9576012 5.8203552 8.1596511 7.046875 8 C 7.0304076 8.1560285 7 8.3084647 7 8.46875 A 0.50004997 0.50004997 0 1 0 8 8.46875 C 7.9999999 6.52985 9.5610811 4.96875 11.5 4.96875 z M 19.5 4.96875 C 21.438919 4.96875 23 6.52985 23 8.46875 A 0.50004997 0.50004997 0 1 0 24 8.46875 C 24 8.3084647 23.969592 8.1560285 23.953125 8 C 25.179645 8.1596511 26.244735 8.9576012 26.730469 10.121094 C 27.277742 11.432094 26.979126 12.940812 25.974609 13.945312 A 0.50004997 0.50004997 0 1 0 26.681641 14.652344 C 27.094043 14.239932 27.401851 13.754766 27.623047 13.238281 C 28.71255 14.290665 29.213185 15.827901 28.916016 17.337891 C 28.584334 19.023391 27.323328 20.371806 25.664062 20.816406 A 0.50054486 0.50054486 0 0 0 25.923828 21.783203 C 26.299741 21.682491 26.651805 21.53002 26.990234 21.357422 C 27.021471 22.338249 26.646555 23.300254 25.923828 23.994141 C 25.039635 24.839541 23.77773 25.166909 22.59375 24.849609 A 0.50029223 0.50029223 0 0 0 22.335938 25.816406 C 22.453619 25.847942 22.572751 25.865007 22.691406 25.886719 C 22.071789 27.286543 20.604373 28.144961 19.042969 27.939453 C 17.297749 27.709653 15.999991 26.22905 16 24.46875 L 16 8.46875 C 16 6.52985 17.561081 4.96875 19.5 4.96875 z M 11.449219 5.96875 A 0.50004997 0.50004997 0 0 0 11.5 6.96875 C 12.334352 6.96875 12.999996 7.63435 13 8.46875 A 0.50004997 0.50004997 0 1 0 14 8.46875 C 13.999994 7.09395 12.87479 5.96875 11.5 5.96875 A 0.50004997 0.50004997 0 0 0 11.449219 5.96875 z M 19.5 5.96875 C 18.12521 5.96875 17.000006 7.09395 17 8.46875 A 0.50004997 0.50004997 0 1 0 18 8.46875 C 18.000004 7.63435 18.665649 6.96875 19.5 6.96875 A 0.50004997 0.50004997 0 1 0 19.5 5.96875 z M 7.7929688 9.8183594 A 0.50028124 0.50028124 0 0 0 7.3144531 10.478516 C 7.4184961 10.790678 7.5656775 11.080762 7.7324219 11.359375 C 7.1602763 11.282068 6.5766431 11.280737 6 11.386719 A 0.50048019 0.50048019 0 0 0 6.1796875 12.371094 C 7.2313769 12.177794 8.3180951 12.363738 9.2441406 12.898438 A 0.50004997 0.50004997 0 0 0 9.2714844 12.914062 A 0.50004997 0.50004997 0 0 0 9.28125 12.917969 A 0.50004997 0.50004997 0 0 0 9.3085938 12.931641 A 0.50004997 0.50004997 0 0 0 9.3203125 12.935547 A 0.50004997 0.50004997 0 0 0 9.3613281 12.949219 A 0.50004997 0.50004997 0 0 0 9.3691406 12.951172 A 0.50004997 0.50004997 0 0 0 9.4042969 12.958984 A 0.50004997 0.50004997 0 0 0 9.4667969 12.96875 A 0.50004997 0.50004997 0 0 0 9.6503906 12.945312 A 0.50004997 0.50004997 0 0 0 9.6640625 12.941406 A 0.50004997 0.50004997 0 0 0 9.7421875 12.90625 A 0.50004997 0.50004997 0 0 0 9.7539062 12.900391 A 0.50004997 0.50004997 0 0 0 9.8242188 12.849609 A 0.50004997 0.50004997 0 0 0 9.8359375 12.839844 A 0.50004997 0.50004997 0 0 0 9.8613281 12.814453 A 0.50004997 0.50004997 0 0 0 9.8710938 12.804688 A 0.50004997 0.50004997 0 0 0 9.921875 12.736328 A 0.50004997 0.50004997 0 0 0 9.9296875 12.724609 A 0.50004997 0.50004997 0 0 0 9.9472656 12.693359 A 0.50004997 0.50004997 0 0 0 9.953125 12.681641 A 0.50004997 0.50004997 0 0 0 9.9824219 12.599609 A 0.50004997 0.50004997 0 0 0 9.9863281 12.587891 A 0.50004997 0.50004997 0 0 0 9.9941406 12.550781 A 0.50004997 0.50004997 0 0 0 9.9960938 12.537109 A 0.50004997 0.50004997 0 0 0 10 12.451172 A 0.50004997 0.50004997 0 0 0 10 12.4375 A 0.50004997 0.50004997 0 0 0 9.9960938 12.400391 A 0.50004997 0.50004997 0 0 0 9.9941406 12.388672 A 0.50004997 0.50004997 0 0 0 9.953125 12.257812 A 0.50004997 0.50004997 0 0 0 9.9472656 12.246094 A 0.50004997 0.50004997 0 0 0 9.9296875 12.212891 A 0.50004997 0.50004997 0 0 0 9.9238281 12.203125 A 0.50004997 0.50004997 0 0 0 9.9023438 12.171875 A 0.50004997 0.50004997 0 0 0 9.8945312 12.162109 A 0.50004997 0.50004997 0 0 0 9.8710938 12.132812 A 0.50004997 0.50004997 0 0 0 9.8632812 12.123047 A 0.50004997 0.50004997 0 0 0 9.8359375 12.097656 A 0.50004997 0.50004997 0 0 0 9.8261719 12.089844 A 0.50004997 0.50004997 0 0 0 9.796875 12.066406 A 0.50004997 0.50004997 0 0 0 9.7871094 12.058594 A 0.50004997 0.50004997 0 0 0 9.7558594 12.039062 C 9.0527079 11.608363 8.5244161 10.944409 8.2636719 10.162109 A 0.50028124 0.50028124 0 0 0 7.7929688 9.8183594 z M 23.207031 9.8183594 A 0.50028134 0.50028134 0 0 0 22.736328 10.162109 C 22.475584 10.944409 21.947292 11.608363 21.244141 12.039062 A 0.50004997 0.50004997 0 0 0 21.230469 12.048828 A 0.50004997 0.50004997 0 0 0 21.212891 12.058594 A 0.50004997 0.50004997 0 0 0 21.203125 12.066406 A 0.50004997 0.50004997 0 0 0 21.173828 12.089844 A 0.50004997 0.50004997 0 0 0 21.15625 12.105469 A 0.50004997 0.50004997 0 0 0 21.136719 12.123047 A 0.50004997 0.50004997 0 0 0 21.128906 12.132812 A 0.50004997 0.50004997 0 0 0 21.105469 12.162109 A 0.50004997 0.50004997 0 0 0 21.085938 12.189453 A 0.50004997 0.50004997 0 0 0 21.074219 12.208984 A 0.50004997 0.50004997 0 0 0 21.058594 12.234375 A 0.50004997 0.50004997 0 0 0 21.050781 12.251953 A 0.50004997 0.50004997 0 0 0 21.044922 12.261719 A 0.50004997 0.50004997 0 0 0 21.005859 12.394531 A 0.50004997 0.50004997 0 0 0 21.003906 12.414062 A 0.50004997 0.50004997 0 0 0 21 12.4375 A 0.50004997 0.50004997 0 0 0 21 12.451172 A 0.50004997 0.50004997 0 0 0 21.005859 12.544922 A 0.50004997 0.50004997 0 0 0 21.009766 12.564453 A 0.50004997 0.50004997 0 0 0 21.013672 12.587891 A 0.50004997 0.50004997 0 0 0 21.017578 12.599609 A 0.50004997 0.50004997 0 0 0 21.050781 12.689453 A 0.50004997 0.50004997 0 0 0 21.060547 12.705078 A 0.50004997 0.50004997 0 0 0 21.070312 12.724609 A 0.50004997 0.50004997 0 0 0 21.078125 12.736328 A 0.50004997 0.50004997 0 0 0 21.128906 12.804688 A 0.50004997 0.50004997 0 0 0 21.138672 12.814453 A 0.50004997 0.50004997 0 0 0 21.164062 12.839844 A 0.50004997 0.50004997 0 0 0 21.175781 12.849609 A 0.50004997 0.50004997 0 0 0 21.246094 12.900391 A 0.50004997 0.50004997 0 0 0 21.257812 12.90625 A 0.50004997 0.50004997 0 0 0 21.351562 12.945312 A 0.50004997 0.50004997 0 0 0 21.533203 12.96875 A 0.50004997 0.50004997 0 0 0 21.595703 12.958984 A 0.50004997 0.50004997 0 0 0 21.630859 12.951172 A 0.50004997 0.50004997 0 0 0 21.644531 12.947266 A 0.50004997 0.50004997 0 0 0 21.679688 12.935547 A 0.50004997 0.50004997 0 0 0 21.691406 12.931641 A 0.50004997 0.50004997 0 0 0 21.724609 12.916016 A 0.50004997 0.50004997 0 0 0 21.736328 12.910156 A 0.50004997 0.50004997 0 0 0 21.755859 12.898438 C 21.758402 12.89697 21.761127 12.895994 21.763672 12.894531 A 0.50004997 0.50004997 0 0 0 21.767578 12.892578 C 22.691125 12.36294 23.772954 12.17859 24.820312 12.371094 A 0.50048024 0.50048024 0 1 0 25 11.386719 C 24.423357 11.280737 23.839724 11.282068 23.267578 11.359375 C 23.434322 11.080762 23.581504 10.790678 23.685547 10.478516 A 0.50028134 0.50028134 0 0 0 23.207031 9.8183594 z M 12.007812 11.712891 A 0.50004997 0.50004997 0 0 0 11.597656 12.46875 C 12.277787 13.64675 12.082937 15.129997 11.121094 16.091797 A 0.50004997 0.50004997 0 1 0 11.828125 16.798828 C 13.106597 15.520328 13.368867 13.53455 12.464844 11.96875 A 0.50004997 0.50004997 0 0 0 12.007812 11.712891 z M 18.941406 11.712891 A 0.50004997 0.50004997 0 0 0 18.535156 11.96875 C 17.631133 13.53455 17.893403 15.520328 19.171875 16.798828 A 0.50004997 0.50004997 0 1 0 19.878906 16.091797 C 18.917063 15.129997 18.722213 13.64675 19.402344 12.46875 A 0.50004997 0.50004997 0 0 0 18.992188 11.712891 A 0.50004997 0.50004997 0 0 0 18.941406 11.712891 z M 3.6289062 16.367188 A 0.50004997 0.50004997 0 0 0 3.578125 16.369141 A 0.50004997 0.50004997 0 0 0 3.1367188 17.003906 C 3.3184412 17.682106 3.675402 18.302328 4.171875 18.798828 A 0.50004997 0.50004997 0 1 0 4.8789062 18.091797 C 4.5065203 17.719397 4.2378658 17.254794 4.1015625 16.746094 A 0.50004997 0.50004997 0 0 0 3.6289062 16.367188 z M 27.371094 16.367188 A 0.50004997 0.50004997 0 0 0 26.898438 16.746094 C 26.762134 17.254794 26.49348 17.719397 26.121094 18.091797 A 0.50004997 0.50004997 0 1 0 26.828125 18.798828 C 27.324598 18.302328 27.681559 17.682106 27.863281 17.003906 A 0.50004997 0.50004997 0 0 0 27.421875 16.369141 A 0.50004997 0.50004997 0 0 0 27.371094 16.367188 z M 10.503906 20.96875 A 0.50004997 0.50004997 0 0 0 10.369141 20.986328 A 0.50004997 0.50004997 0 0 0 10.367188 20.986328 A 0.50004997 0.50004997 0 0 0 10.355469 20.990234 A 0.50004997 0.50004997 0 0 0 10.320312 21.001953 A 0.50004997 0.50004997 0 0 0 10.248047 21.037109 A 0.50004997 0.50004997 0 0 0 10.244141 21.039062 C 9.3180946 21.573762 8.231377 21.759706 7.1796875 21.566406 A 0.50048019 0.50048019 0 0 0 7 22.552734 C 7.5766432 22.658716 8.1602763 22.655432 8.7324219 22.578125 C 8.5656775 22.856738 8.4184961 23.148776 8.3144531 23.460938 A 0.50028124 0.50028124 0 1 0 9.2636719 23.777344 C 9.52292 22.999532 10.047022 22.337137 10.744141 21.90625 A 0.50004997 0.50004997 0 0 0 10.751953 21.900391 C 10.753186 21.899634 10.754626 21.899193 10.755859 21.898438 A 0.50004997 0.50004997 0 0 0 10.787109 21.878906 A 0.50004997 0.50004997 0 0 0 10.796875 21.871094 A 0.50004997 0.50004997 0 0 0 10.826172 21.847656 A 0.50004997 0.50004997 0 0 0 10.835938 21.839844 A 0.50004997 0.50004997 0 0 0 10.863281 21.814453 A 0.50004997 0.50004997 0 0 0 10.865234 21.8125 A 0.50004997 0.50004997 0 0 0 10.503906 20.96875 z M 20.474609 20.96875 A 0.50004997 0.50004997 0 0 0 20.134766 21.8125 A 0.50004997 0.50004997 0 0 1 20.136719 21.814453 A 0.50004997 0.50004997 0 0 0 20.146484 21.822266 A 0.50004997 0.50004997 0 0 0 20.203125 21.871094 A 0.50004997 0.50004997 0 0 0 20.248047 21.900391 C 20.949352 22.331152 21.476042 22.996416 21.736328 23.777344 A 0.50028134 0.50028134 0 1 0 22.685547 23.460938 C 22.581504 23.148776 22.434322 22.856738 22.267578 22.578125 C 22.839724 22.655432 23.423357 22.658716 24 22.552734 A 0.50048024 0.50048024 0 0 0 23.820312 21.566406 C 22.768624 21.759706 21.681905 21.573762 20.755859 21.039062 A 0.50004997 0.50004997 0 0 0 20.751953 21.037109 A 0.50004997 0.50004997 0 0 0 20.679688 21.001953 A 0.50004997 0.50004997 0 0 0 20.644531 20.990234 A 0.50004997 0.50004997 0 0 0 20.630859 20.986328 A 0.50004997 0.50004997 0 0 1 20.628906 20.986328 A 0.50004997 0.50004997 0 0 0 20.533203 20.970703 A 0.50004997 0.50004997 0 0 0 20.474609 20.96875 z M 13.492188 23.962891 A 0.50004997 0.50004997 0 0 0 13 24.46875 C 13 25.30305 12.334349 25.96875 11.5 25.96875 A 0.50004997 0.50004997 0 1 0 11.5 26.96875 C 12.87479 26.96875 14 25.84355 14 24.46875 A 0.50004997 0.50004997 0 0 0 13.492188 23.962891 z M 17.458984 23.962891 A 0.50004997 0.50004997 0 0 0 17 24.46875 C 17 25.84355 18.12521 26.96875 19.5 26.96875 A 0.50004997 0.50004997 0 1 0 19.5 25.96875 C 18.665651 25.96875 18 25.30305 18 24.46875 A 0.50004997 0.50004997 0 0 0 17.507812 23.962891 A 0.50004997 0.50004997 0 0 0 17.458984 23.962891 z " color="#000" font-family="sans-serif" font-weight="400" overflow="visible" white-space="normal" style="line-height:normal;text-indent:0;text-align:start;text-decoration-line:none;text-decoration-style:solid;text-decoration-color:#000;text-transform:none;block-progression:tb;isolation:auto;mix-blend-mode:normal"/></svg>